# xmcd
#
# Track frame offsets: 
#        150
#        11472
#        23801
#        36222
#        50754
#        64362
#        78686
#        89361
#        101877
#        115222
#        126878
#        139807
#        152703
#        164893
#        175566
#        189738
#        199836
#        212541
#        224592
#        237144
#        255657
#        270182
#        284188
#        297198
#        311554
#        320817
#
# Disc length: 4458 seconds
#
# Revision: 0
# Processed by: cddbd v1.5.1PL2 Copyright (c) Steve Scherf et al.
# Submitted via: ExactAudioCopy v0.95b4
#
DISCID=9411681a
DTITLE=Various Artist - Chess Pieces: The Very Best Of Chess [CD1]
DYEAR=2005
DGENRE=Blues
TTITLE0=Jackie Brenston and His Delta Cats - Rocket 88
TTITLE1=Howlin' Wolf - How Many More Years
TTITLE2=Little Walter - Juke
TTITLE3=John Lee Hooker - Sugar Mama
TTITLE4=Elmore James - Dust My Broom
TTITLE5=Lowell Fulson - Reconsider Baby
TTITLE6=Chuck Berry - Maybellene
TTITLE7=Bo Diddley - Bo Diddley
TTITLE8=Muddy Waters - Mannish Boy
TTITLE9=Sonny Boy Williamson - Don't Start Me To Talkin'
TTITLE10=Jimmy Witherspoon - When The Lights Go Out
TTITLE11=Muddy Waters - (I'm Your) Hoochie Coochie Man
TTITLE12=Little Walter - My Babe
TTITLE13=Clarence "Frogman" Henry - Ain't Got No Home
TTITLE14=Howlin' Wolf - Smokestack Lightnin'
TTITLE15=Dale Hawkins - Susie-Q
TTITLE16=Jimmy Rogers - Walking By Myself
TTITLE17=Chuck Berry - Johnny B. Goode
TTITLE18=Jimmy McCracklin - The Walk
TTITLE19=Harvey and The Moonglows - Ten Commandments Of Love
TTITLE20=Bo Diddley - Say Man
TTITLE21=Etta James - I Just Want To Make Love To You
TTITLE22=Dave "Baby" Cortez - Rinky Dink
TTITLE23=Bo Diddley - You Can't Judge A Book By It's Cover
TTITLE24=Jan Bradley - Mama Didn't Lie
TTITLE25=Jaynetts - Sally, Go 'Round The Roses
EXTD=
EXTT0=
EXTT1=
EXTT2=
EXTT3=
EXTT4=
EXTT5=
EXTT6=
EXTT7=
EXTT8=
EXTT9=
EXTT10=
EXTT11=
EXTT12=
EXTT13=
EXTT14=
EXTT15=
EXTT16=
EXTT17=
EXTT18=
EXTT19=
EXTT20=
EXTT21=
EXTT22=
EXTT23=
EXTT24=
EXTT25=
PLAYORDER=
